<?xml version="1.0" standalone="no"?>
<!DOCTYPE svg PUBLIC "-//W3C//DTD SVG 20010904//EN"
 "http://www.w3.org/TR/2001/REC-SVG-20010904/DTD/svg10.dtd">
<svg version="1.0" xmlns="http://www.w3.org/2000/svg"
 width="1228.000000pt" height="1395.000000pt" viewBox="0 0 1228.000000 1395.000000"
 preserveAspectRatio="xMidYMid meet">

<g transform="translate(0.000000,1395.000000) scale(0.100000,-0.100000)"
fill="#000000" stroke="none">
<path d="M1830 6895 l0 -5125 285 0 285 0 2 2442 3 2443 380 0 380 0 3 -2443
2 -2442 285 0 285 0 0 2445 0 2445 358 -2 357 -3 3 -2442 2 -2443 3190 0 3190
0 0 5125 0 5125 -4505 0 -4505 0 0 -5125z m5248 3723 l2 -828 -2340 0 -2340 0
0 830 0 830 2338 -2 2337 -3 3 -827z m3192 -1278 l0 -2110 -1310 0 -1310 0 0
2110 0 2110 1310 0 1310 0 0 -2110z m-5810 -1120 l0 -990 -1030 0 -1030 0 0
990 0 990 1030 0 1030 0 0 -990z m2620 0 l0 -990 -1025 0 -1025 0 0 990 0 990
1025 0 1025 0 0 -990z m-2 -2497 l2 -933 -1025 0 -1025 0 0 935 0 935 1023 -2
1022 -3 3 -932z m3190 -1225 l2 -2158 -1310 0 -1310 0 0 2160 0 2160 1308 -2
1307 -3 3 -2157z m-3193 -1218 l0 -935 -1022 -3 -1023 -2 0 940 0 940 1023 -2
1022 -3 0 -935z"/>
</g>
</svg>
