<?xml version="1.0" standalone="no"?>
<!DOCTYPE svg PUBLIC "-//W3C//DTD SVG 20010904//EN"
 "http://www.w3.org/TR/2001/REC-SVG-20010904/DTD/svg10.dtd">
<svg version="1.0" xmlns="http://www.w3.org/2000/svg"
 width="1228.000000pt" height="1395.000000pt" viewBox="0 0 1228.000000 1395.000000"
 preserveAspectRatio="xMidYMid meet">

<g transform="translate(0.000000,1395.000000) scale(0.100000,-0.100000)"
fill="#000000" stroke="none">
<path d="M0 6975 l0 -6975 390 0 390 0 0 3325 0 3325 520 0 520 0 0 -3325 0
-3325 390 0 390 0 0 3325 0 3325 490 0 490 0 0 -3325 0 -3325 4350 0 4350 0 0
6975 0 6975 -6140 0 -6140 0 0 -6975z m7150 5065 l0 -1130 -3185 0 -3185 0 0
1130 0 1130 3185 0 3185 0 0 -1130z m4350 -1740 l0 -2870 -1785 0 -1785 0 0
2870 0 2870 1785 0 1785 0 0 -2870z m-7920 -1520 l0 -1350 -1400 0 -1400 0 0
1350 0 1350 1400 0 1400 0 0 -1350z m3570 0 l0 -1350 -1395 0 -1395 0 0 1350
0 1350 1395 0 1395 0 0 -1350z m0 -3400 l0 -1270 -1395 0 -1395 0 0 1270 0
1270 1395 0 1395 0 0 -1270z m4350 -1665 l0 -2935 -1785 0 -1785 0 0 2935 0
2935 1785 0 1785 0 0 -2935z m-4350 -1660 l0 -1275 -1395 0 -1395 0 0 1275 0
1275 1395 0 1395 0 0 -1275z"/>
</g>
</svg>
